<?xml version="1.0" encoding="utf-8"?><!DOCTYPE svg PUBLIC "-//W3C//DTD SVG 1.1//EN" "http://www.w3.org/Graphics/SVG/1.1/DTD/svg11.dtd"><svg version="1.1" id="Layer_1" xmlns="http://www.w3.org/2000/svg" xmlns:xlink="http://www.w3.org/1999/xlink" x="0px" y="0px" width="41.302px" height="41.302px" viewBox="0 0 41.302 41.302" enable-background="new 0 0 41.302 41.302" xml:space="preserve"><g><circle fill="#FFFFFF" cx="20.651" cy="20.651" r="20.651"/><g><path fill="#108700" d="M20.651,2.367c3.315,0,6.375,0.817,9.179,2.45s5.022,3.852,6.656,6.655c1.633,2.804,2.45,5.864,2.45,9.18s-0.817,6.375-2.45,9.179c-1.633,2.803-3.852,5.021-6.656,6.656c-2.803,1.633-5.864,2.45-9.179,2.45c-3.316,0-6.375-0.817-9.179-2.45c-2.804-1.634-5.023-3.852-6.656-6.656c-1.633-2.803-2.45-5.863-2.45-9.179s0.817-6.375,2.45-9.18c1.633-2.803,3.851-5.021,6.656-6.655C14.275,3.183,17.335,2.367,20.651,2.367z M11.874,18.713l-1.975,1.939c1.731,1.731,3.303,3.352,4.718,4.863c1.414,1.512,2.401,2.609,2.962,3.292l0.805,0.95l0.804-1.316c0.341-0.561,1.036-1.597,2.085-3.109l3.035-4.351c0.975-1.39,2.133-2.84,3.474-4.352c1.341-1.512,2.547-2.779,3.621-3.803c-0.439-0.853-0.878-1.279-1.317-1.279c-0.244,0.146-0.634,0.415-1.17,0.804c-0.537,0.391-1.914,1.572-4.133,3.547c-2.219,1.975-4.791,4.425-7.716,7.351L11.874,18.713z"/></g></g></svg>